<?xml version="1.0" encoding="UTF-8"?>
<svg width="20px" height="20px" viewBox="0 0 20 20" version="1.1" xmlns="http://www.w3.org/2000/svg" xmlns:xlink="http://www.w3.org/1999/xlink">
    <!-- Generator: Sketch 55 (78076) - https://sketchapp.com -->
    <title>z</title>
    <desc>Created with Sketch.</desc>
    <g id="PC-端设计稿" stroke="none" stroke-width="1" fill="none" fill-rule="evenodd">
        <g id="图标状态" transform="translate(-319.000000, -561.000000)">
            <g id="切片" transform="translate(286.000000, 221.000000)"></g>
            <g id="顶部icon" transform="translate(287.000000, 561.000000)" stroke="#737882" stroke-width="2">
                <g id="录制" transform="translate(33.000000, 1.000000)">
                    <path d="M7.01351156,16.7516716 C7.55223631,16.2753373 8.25344285,16 9,16 C9.74655715,16 10.4477637,16.2753373 10.9864884,16.7516716 C11.6943996,16.5708589 12.3713236,16.2938264 13.0008126,15.9294789 C13.0377398,14.3286422 14.3286422,13.0377398 15.9294789,13.0008126 C16.2938264,12.3713236 16.5708589,11.6943996 16.7516716,10.9864884 C16.2753373,10.4477637 16,9.74655715 16,9 C16,8.25344285 16.2753373,7.55223631 16.7516716,7.01351156 C16.5708589,6.30560035 16.2938264,5.62867639 15.9294789,4.99918741 C14.3286422,4.96226025 13.0377398,3.67135782 13.0008126,2.07052113 C12.3713236,1.70617362 11.6943996,1.42914109 10.9864884,1.24832836 C10.4477637,1.72466271 9.74655715,2 9,2 C8.25344285,2 7.55223631,1.72466271 7.01351156,1.24832836 C6.30560035,1.42914109 5.62867639,1.70617362 4.99918741,2.07052113 C4.96226025,3.67135782 3.67135782,4.96226025 2.07052113,4.99918741 C1.70617362,5.62867639 1.42914109,6.30560035 1.24832836,7.01351156 C1.72466271,7.55223631 2,8.25344285 2,9 C2,9.74655715 1.72466271,10.4477637 1.24832836,10.9864884 C1.42914109,11.6943996 1.70617362,12.3713236 2.07052113,13.0008126 C3.67135782,13.0377398 4.96226025,14.3286422 4.99918741,15.9294789 C5.62867639,16.2938264 6.30560035,16.5708589 7.01351156,16.7516716 Z" id="形状结合"></path>
                    <circle id="椭圆形" cx="9" cy="9" r="2"></circle>
                </g>
            </g>
        </g>
    </g>
</svg>