<?xml version="1.0" encoding="UTF-8"?>
<svg width="20px" height="20px" viewBox="0 0 20 20" version="1.1" xmlns="http://www.w3.org/2000/svg" xmlns:xlink="http://www.w3.org/1999/xlink">
    <!-- Generator: Sketch 55 (78076) - https://sketchapp.com -->
    <title>v</title>
    <desc>Created with Sketch.</desc>
    <defs>
        <circle id="path-1" cx="10" cy="10" r="10"></circle>
    </defs>
    <g id="PC-端设计稿" stroke="none" stroke-width="1" fill="none" fill-rule="evenodd">
        <g id="图标状态" transform="translate(-1104.000000, -440.000000)">
            <g id="切片" transform="translate(286.000000, 221.000000)"></g>
            <g id="默认剪影" transform="translate(1104.000000, 440.000000)">
                <mask id="mask-2" fill="white">
                    <use xlink:href="#path-1"></use>
                </mask>
                <use id="蒙版" fill="#4B505A" xlink:href="#path-1"></use>
                <path d="M6,7 L6,3 L10,3 C12.209139,3 14,4.790861 14,7 C14,9.209139 12.209139,11 10,11 C7.790861,11 6,9.209139 6,7 Z" id="形状结合" fill="#212224" mask="url(#mask-2)"></path>
                <path d="M8.5,12 L11.5,12 C15.0898509,12 18,14.9101491 18,18.5 L18,19 C18,22.3137085 15.3137085,25 12,25 L8,25 C4.6862915,25 2,22.3137085 2,19 L2,18.5 C2,14.9101491 4.91014913,12 8.5,12 Z" id="矩形" fill="#212224" mask="url(#mask-2)"></path>
            </g>
        </g>
    </g>
</svg>