<?xml version="1.0" encoding="UTF-8"?>
<svg width="20px" height="20px" viewBox="0 0 20 20" version="1.1" xmlns="http://www.w3.org/2000/svg" xmlns:xlink="http://www.w3.org/1999/xlink">
    <!-- Generator: Sketch 55 (78076) - https://sketchapp.com -->
    <title>v</title>
    <desc>Created with Sketch.</desc>
    <defs>
        <circle id="path-1" cx="10" cy="10" r="10"></circle>
    </defs>
    <g id="PC-端设计稿" stroke="none" stroke-width="1" fill="none" fill-rule="evenodd">
        <g id="图标状态" transform="translate(-910.000000, -447.000000)">
            <g id="切片" transform="translate(286.000000, 221.000000)"></g>
            <g id="默认剪影" transform="translate(910.000000, 447.000000)">
                <mask id="mask-2" fill="white">
                    <use xlink:href="#path-1"></use>
                </mask>
                <use id="蒙版" fill="#4B505A" xlink:href="#path-1"></use>
                <path d="M15,8.99169546 L15,9.51483514 L15,8.99169546 C15,8.99169546 15,8.99169546 15,8.99169546 Z M16,8.01852417 L16,8.17241379 L15.6715157,11.343986 C15.8748518,11.5413102 16.0051669,11.8398269 15.9998428,12.279333 C15.9998428,13.9172643 14.9766835,14.3176475 14.6155685,14.6452337 C14.6123059,14.6481934 14.6089826,14.6511413 14.6056,14.654077 C14.2354757,15.8121611 13.6141268,16.6899667 12.7810962,17.2552837 L12.8520239,18.144607 C15.2074481,18.4465916 16.8926693,19.1901008 17,20.0747874 L17,21 L4,21 L4,20.0747874 C4.0912056,19.3230139 5.32180038,18.673184 7.13481766,18.309594 L7.21890376,17.2552837 C6.38548579,16.6897037 5.76394635,15.8113445 5.39388372,14.652461 C5.39117309,14.6500599 5.38850271,14.6476508 5.38587329,14.6452337 C5.02950588,14.3176475 4,13.9172643 4,12.279333 C4,11.8469365 4.12956035,11.5510049 4.3294843,11.3536415 L4,8.17241379 L4,8.01852417 L4,7.61538462 L4,7.46153846 C4,6.43076923 4.5,5.50769231 5.28333333,4.89230769 C4.9,4.35384615 4.66666667,3.69230769 4.66666667,3 L10.5,3 L10.8333333,3 L11,3 C13.7666667,3 16,5.06153846 16,7.61538462 L16,7.76923077 L16,8.01852417 Z" fill="#212224" fill-rule="nonzero" mask="url(#mask-2)"></path>
            </g>
        </g>
    </g>
</svg>