<?xml version="1.0" encoding="UTF-8"?>
<svg width="22px" height="16px" viewBox="0 0 22 16" version="1.1" xmlns="http://www.w3.org/2000/svg" xmlns:xlink="http://www.w3.org/1999/xlink">
    <!-- Generator: Sketch 55 (78076) - https://sketchapp.com -->
    <title>logo</title>
    <desc>Created with Sketch.</desc>
    <defs>
        <polygon id="path-1" points="0.00583826087 0.0715223881 17.9723739 0.0715223881 17.9723739 10 0.00583826087 10"></polygon>
        <polygon id="path-3" points="0 0.0720471091 9.97180741 0.0720471091 9.97180741 9.99686466 0 9.99686466"></polygon>
        <polygon id="path-5" points="0.0257421965 0.0447272727 13.9511194 0.0447272727 13.9511194 5.98214026 0.0257421965 5.98214026"></polygon>
    </defs>
    <g id="PC-端设计稿" stroke="none" stroke-width="1" fill="none" fill-rule="evenodd">
        <g id="图标状态" transform="translate(-295.000000, -872.000000)">
            <g id="切片" transform="translate(286.000000, 221.000000)"></g>
            <g id="编组" transform="translate(295.000000, 872.000000)">
                <g transform="translate(4.000000, 6.000000)">
                    <mask id="mask-2" fill="white">
                        <use xlink:href="#path-1"></use>
                    </mask>
                    <g id="Clip-2"></g>
                    <path d="M14.979647,7.19450746 C14.5802035,7.57152239 13.8677165,7.99950746 12.6981078,8.03741791 C12.157247,8.05495522 11.5256817,8.05697015 11.2367426,8.05697015 C10.9213513,8.05697015 8.14019478,8.05697015 4.95223826,8.05689552 C7.23870783,5.93928358 9.23326435,4.09197015 9.45951652,3.88241791 C9.66682957,3.69047761 10.1330296,3.2651791 10.5351339,2.9198806 C11.4178383,2.16189552 12.2125774,2.00943284 12.7745687,2.01443284 C13.6552383,2.02226866 14.45616,2.3651791 15.02856,2.91883582 C16.2532643,4.11241791 16.2243078,6.01995522 14.979647,7.19450746 M16.4849948,1.56002985 C15.5459426,0.647044776 14.2371078,0.0715970149 12.7820035,0.0715223881 C11.524273,0.0714477612 10.4414557,0.485029851 9.49598609,1.2190597 C9.08394261,1.5390597 8.6515513,1.92226866 8.10771652,2.42592537 C7.83756,2.67607463 0.00583826087,9.92249254 0.00583826087,9.92249254 C0.416473043,9.97823881 0.981046957,9.99480597 1.48449913,9.99786567 C1.95609913,10.0007761 10.9545339,9.9998806 11.3312035,9.9998806 C12.0893165,9.9998806 12.5827513,9.99913433 13.1127339,9.96219403 C14.3282035,9.87749254 15.476447,9.45249254 16.4046209,8.58331343 C18.4657774,6.65316418 18.4966904,3.52070149 16.4849948,1.56002985" id="Fill-1" fill="#00A4FF" mask="url(#mask-2)"></path>
                </g>
                <g transform="translate(0.000000, 6.000000)">
                    <mask id="mask-4" fill="white">
                        <use xlink:href="#path-3"></use>
                    </mask>
                    <g id="Clip-4"></g>
                    <path d="M7.86551111,1.10235338 C6.9941037,0.440398496 6.01862222,0.0703984962 4.9126963,0.0720526316 C3.53551111,0.0721278195 2.29662222,0.651827068 1.40780741,1.57175188 C-0.496266667,3.54709023 -0.466933333,6.70318045 1.48395556,8.64784211 C2.26721481,9.42859398 3.2161037,9.8534812 4.22802963,9.99686466 L6.13662222,8.11701504 C5.82802963,8.11566165 5.38506667,8.11145113 4.9921037,8.09784211 C3.88514074,8.05964662 3.21077037,7.62844361 2.83262222,7.24859398 C1.65454815,6.06521053 1.62714074,4.14333083 2.78632593,2.94077444 C3.32817778,2.38295489 4.08617778,2.03754135 4.91973333,2.02957143 C5.44202963,2.02746617 6.15091852,2.18145113 6.95188148,2.8553609 C7.34617778,3.18716541 8.23662222,3.9822782 8.58906667,4.30611278 L9.97180741,2.93701504 C9.33854815,2.35558647 8.41454815,1.51731579 7.86551111,1.10235338" id="Fill-3" fill="#00C6DA" mask="url(#mask-4)"></path>
                </g>
                <g transform="translate(4.000000, 0.000000)">
                    <mask id="mask-6" fill="white">
                        <use xlink:href="#path-5"></use>
                    </mask>
                    <g id="Clip-6"></g>
                    <path d="M13.9435225,4.67008831 C12.9527595,1.97562078 10.2851526,0.0447116883 7.1475341,0.0447116883 C3.54840116,0.0447116883 0.565834682,2.59323117 0.0257421965,5.91271169 C0.31512948,5.8658026 0.612528324,5.84086753 0.916158382,5.84086753 C1.33866705,5.84032208 1.74345318,5.88785455 2.13229711,5.97793247 C2.13990405,5.97949091 2.14751098,5.98034805 2.15503699,5.98214026 C2.6427711,3.74078961 4.7004474,2.07598442 7.1475341,2.07598442 C9.18554566,2.07598442 10.9735803,3.25962078 11.779511,4.93689351 C11.7922971,4.96330909 11.8137422,4.97203636 11.8357538,4.96627013 C12.4419618,4.80575065 13.1688289,4.71255584 13.870852,4.76242597 C13.9392335,4.76725714 13.9655341,4.73016623 13.9435225,4.67008831" id="Fill-5" fill="#006EFF" mask="url(#mask-6)"></path>
                </g>
            </g>
        </g>
    </g>
</svg>