<?xml version="1.0" encoding="UTF-8"?>
<svg width="20px" height="20px" viewBox="0 0 20 20" version="1.1" xmlns="http://www.w3.org/2000/svg" xmlns:xlink="http://www.w3.org/1999/xlink">
    <!-- Generator: Sketch 55 (78076) - https://sketchapp.com -->
    <title>z</title>
    <desc>Created with Sketch.</desc>
    <g id="PC-端设计稿" stroke="none" stroke-width="1" fill="none" fill-rule="evenodd">
        <g id="图标状态" transform="translate(-416.000000, -457.000000)">
            <g id="切片" transform="translate(286.000000, 221.000000)"></g>
            <g id="顶部icon" transform="translate(289.000000, 457.000000)" stroke="#DCEBEB" stroke-width="2">
                <g id="录制" transform="translate(129.000000, 2.000000)">
                    <path d="M6.17974905,14.9002535 C6.67855709,14.4752319 7.31915278,14.2304996 8,14.2304996 C8.68084722,14.2304996 9.32144291,14.4752319 9.82025095,14.9002535 C10.4166231,14.7434102 10.9878848,14.5098189 11.5216005,14.2062108 C11.5830167,12.751437 12.751437,11.5830167 14.2062108,11.5216005 C14.5098189,10.9878848 14.7434102,10.4166231 14.9002535,9.82025095 C14.4752319,9.32144291 14.2304996,8.68084722 14.2304996,8 C14.2304996,7.31915278 14.4752319,6.67855709 14.9002535,6.17974905 C14.7434102,5.58337688 14.5098189,5.01211517 14.2062108,4.47839948 C12.751437,4.41698332 11.5830167,3.24856297 11.5216005,1.79378921 C10.9878848,1.49018106 10.4166231,1.25658976 9.82025095,1.09974645 C9.32144291,1.52476812 8.68084722,1.76950038 8,1.76950038 C7.31915278,1.76950038 6.67855709,1.52476812 6.17974905,1.09974645 C5.58337688,1.25658976 5.01211517,1.49018106 4.47839948,1.79378921 C4.41698332,3.24856297 3.24856297,4.41698332 1.79378921,4.47839948 C1.49018106,5.01211517 1.25658976,5.58337688 1.09974645,6.17974905 C1.52476812,6.67855709 1.76950038,7.31915278 1.76950038,8 C1.76950038,8.68084722 1.52476812,9.32144291 1.09974645,9.82025095 C1.25658976,10.4166231 1.49018106,10.9878848 1.79378921,11.5216005 C3.24856297,11.5830167 4.41698332,12.751437 4.47839948,14.2062108 C5.01211517,14.5098189 5.58337688,14.7434102 6.17974905,14.9002535 Z" id="形状结合"></path>
                    <circle id="椭圆形" cx="8" cy="8" r="2"></circle>
                </g>
            </g>
        </g>
    </g>
</svg>