<?xml version="1.0" encoding="UTF-8"?>
<svg width="20px" height="20px" viewBox="0 0 20 20" version="1.1" xmlns="http://www.w3.org/2000/svg" xmlns:xlink="http://www.w3.org/1999/xlink">
    <!-- Generator: Sketch 55 (78076) - https://sketchapp.com -->
    <title>z</title>
    <desc>Created with Sketch.</desc>
    <g id="PC-端设计稿" stroke="none" stroke-width="1" fill="none" fill-rule="evenodd">
        <g id="图标状态" transform="translate(-383.000000, -587.000000)">
            <g id="切片" transform="translate(286.000000, 221.000000)"></g>
            <g id="顶部icon" transform="translate(287.000000, 587.000000)" fill="#00E9FF">
                <g id="手" transform="translate(97.000000, 0.000000)">
                    <path d="M7.00141782,9.0046956 C7.00625122,9.00466125 7.01108869,9.00464405 7.01593018,9.00464405 C7.0174764,9.00464405 7.01902262,9.00464584 7.02056884,9.00464943 L8,9.00692106 L8,1.88681369 C8,1.33452894 8.44771525,0.886813694 9,0.886813694 C9.55228475,0.886813694 10,1.33452894 10,1.88681369 L10,9.01155973 L11.0014735,9.01388249 L11.0014735,2.88678641 C11.0014735,2.33451673 11.4491765,1.88681369 12.0014462,1.88681369 C12.5537159,1.88681369 13.0014189,2.33451673 13.0014189,2.88678641 L13.0014189,9.01852103 L14.0162354,9.02087473 L14.0162354,4.87726807 C14.0162354,4.32604515 14.4630898,3.87919068 15.0143127,3.87919068 C15.5655357,3.87919068 16.0123901,4.32604515 16.0123901,4.87726807 L16.0123901,10.9008959 C16.0147391,10.9405905 16.0159302,10.9805961 16.0159302,11.0208794 L16.0159302,16 C16.0159302,17.1045695 15.1204997,18 14.0159302,18 L8.01593018,18 C7.57070864,18 7.14813929,17.9030145 6.76819659,17.7290179 C6.38225159,17.591247 6.02937015,17.3584221 5.74619962,17.0421337 L0.768154536,11.4818888 C0.420618259,11.0937069 0.436961111,10.501618 0.805381133,10.133198 C1.17499608,9.76358308 1.76783241,9.74368906 2.16139454,10.0876938 L5.00928688,12.5769791 L5.00928688,2.88283624 C5.00928688,2.33272447 5.45524058,1.88677077 6.00535235,1.88677077 C6.55546412,1.88677077 7.00141782,2.33272447 7.00141782,2.88283624 L7.00141782,9.0046956 Z" id="Combined-Shape"></path>
                </g>
            </g>
        </g>
    </g>
</svg>